<svg width="24" height="24" viewBox="0 0 24 24" fill="none" xmlns="http://www.w3.org/2000/svg">
<path fill-rule="evenodd" clip-rule="evenodd" d="M11.6536 16.4929C11.3814 16.8051 10.9076 16.8375 10.5954 16.5653L6.00715 12.5653C5.84377 12.4229 5.75 12.2168 5.75 12C5.75 11.7833 5.84377 11.5771 6.00715 11.4347L10.5954 7.43468C10.9076 7.16249 11.3814 7.19494 11.6536 7.50716C11.9258 7.81938 11.8933 8.29315 11.5811 8.56534L8.50161 11.25L17.5 11.25C17.9142 11.25 18.25 11.5858 18.25 12C18.25 12.4142 17.9142 12.75 17.5 12.75L8.50161 12.75L11.5811 15.4347C11.8933 15.7069 11.9258 16.1806 11.6536 16.4929Z" fill="#201F20"/>
</svg>
