<svg width="24" height="24" viewBox="0 0 24 24" fill="none" xmlns="http://www.w3.org/2000/svg">
    <path d="M14.7998 7L15.001 7.47905C15.3258 8.25243 15.4075 9.10637 15.2351 9.92729C14.972 11.1799 13.9748 12.1473 12.7149 12.3723L12.6039 12.3921C12.2043 12.4635 11.7953 12.4635 11.3957 12.3921L11.2847 12.3723C10.0248 12.1473 9.02758 11.1799 8.76453 9.92729C8.59214 9.10637 8.67378 8.25243 8.9986 7.47905L9.1998 7" stroke="white" stroke-opacity="0.7" stroke-width="1.5" stroke-linecap="round"/>
    <path d="M3.77955 15.143C4.34973 17.6504 6.29874 19.6204 8.79803 20.2251C10.8985 20.7334 13.1022 20.7334 15.2026 20.2251C17.7019 19.6204 19.6509 17.6504 20.2211 15.143C20.7305 12.9026 20.6066 10.5648 19.8632 8.39084L19.7528 8.06787C18.9348 5.67585 16.8915 3.91013 14.4061 3.44766L13.7256 3.32102C12.5852 3.10881 11.4154 3.10881 10.275 3.32102L9.59445 3.44766C7.1091 3.91013 5.06575 5.67586 4.24781 8.06789L4.13737 8.39084C3.39401 10.5648 3.27011 12.9026 3.77955 15.143Z" stroke="white" stroke-opacity="0.7" stroke-width="1.5"/>
    </svg>
    