<svg width="24" height="24" viewBox="0 0 24 24" fill="none" xmlns="http://www.w3.org/2000/svg">
    <path d="M3.96001 9.71903C3.96001 9.30482 4.2958 8.96903 4.71001 8.96903C5.12422 8.96903 5.46001 9.30482 5.46001 9.71903H3.96001ZM18.54 9.71903C18.54 9.30482 18.8758 8.96903 19.29 8.96903C19.7042 8.96903 20.04 9.30482 20.04 9.71903H18.54ZM9.48675 20.7071L9.65918 19.9772L9.48675 20.7071ZM14.5133 20.7071L14.3408 19.9772L14.5133 20.7071ZM9.17157 5.01423L9.70378 5.54267L9.17157 5.01423ZM3.53221 11.7582C3.24035 12.0521 2.76548 12.0538 2.47155 11.7619C2.17762 11.4701 2.17594 10.9952 2.46779 10.7013L3.53221 11.7582ZM14.8284 5.01423L14.2962 5.54267L14.8284 5.01423ZM21.5322 10.7013C21.8241 10.9952 21.8224 11.4701 21.5284 11.7619C21.2345 12.0538 20.7596 12.0521 20.4678 11.7582L21.5322 10.7013ZM14.2816 18.3203L15.0187 18.1819L15.0187 18.1819L14.2816 18.3203ZM14.2622 18.2173L13.5251 18.3556L13.5251 18.3556L14.2622 18.2173ZM9.73776 18.2173L10.4749 18.3556V18.3556L9.73776 18.2173ZM9.71842 18.3203L8.9813 18.1819V18.1819L9.71842 18.3203ZM10.0082 20.5519L10.6854 20.2296V20.2296L10.0082 20.5519ZM10.8022 20.475C10.9802 20.849 10.8213 21.2965 10.4473 21.4745C10.0733 21.6525 9.62577 21.4936 9.44778 21.1196L10.8022 20.475ZM13.9918 20.5519L14.669 20.8742L14.669 20.8742L13.9918 20.5519ZM14.5522 21.1196C14.3742 21.4936 13.9267 21.6525 13.5527 21.4745C13.1787 21.2965 13.0198 20.849 13.1978 20.475L14.5522 21.1196ZM12.6389 16.4426L12.8395 15.7199H12.8395L12.6389 16.4426ZM11.3611 16.4426L11.1605 15.7199H11.1605L11.3611 16.4426ZM5.46001 9.71903V14.6374H3.96001V9.71903H5.46001ZM18.54 14.6374V9.71903H20.04V14.6374H18.54ZM9.65918 19.9772C11.1989 20.3409 12.8012 20.3409 14.3408 19.9772L14.6857 21.437C12.9192 21.8543 11.0808 21.8543 9.31432 21.437L9.65918 19.9772ZM14.3408 19.9772C16.7974 19.3969 18.54 17.1877 18.54 14.6374H20.04C20.04 17.8765 17.8258 20.6952 14.6857 21.437L14.3408 19.9772ZM9.31432 21.437C6.17423 20.6952 3.96001 17.8765 3.96001 14.6374H5.46001C5.46001 17.1877 7.20262 19.3969 9.65918 19.9772L9.31432 21.437ZM9.70378 5.54267L3.53221 11.7582L2.46779 10.7013L8.63937 4.48578L9.70378 5.54267ZM15.3606 4.48578L21.5322 10.7013L20.4678 11.7582L14.2962 5.54267L15.3606 4.48578ZM8.63937 4.48578C9.29106 3.82945 9.83194 3.28246 10.3182 2.90885C10.8215 2.52211 11.3542 2.25 12 2.25V3.75C11.8173 3.75 11.6026 3.81359 11.2321 4.09826C10.8445 4.39606 10.3854 4.85618 9.70378 5.54267L8.63937 4.48578ZM14.2962 5.54267C13.6146 4.85618 13.1555 4.39606 12.7679 4.09826C12.3974 3.81359 12.1827 3.75 12 3.75V2.25C12.6458 2.25 13.1785 2.52211 13.6818 2.90885C14.1681 3.28246 14.7089 3.82945 15.3606 4.48578L14.2962 5.54267ZM13.5445 18.4587L13.5251 18.3556L14.9994 18.0789L15.0187 18.1819L13.5445 18.4587ZM10.4749 18.3556L10.4555 18.4587L8.9813 18.1819L9.00064 18.0789L10.4749 18.3556ZM10.6854 20.2296L10.8022 20.475L9.44778 21.1196L9.331 20.8742L10.6854 20.2296ZM14.669 20.8742L14.5522 21.1196L13.1978 20.475L13.3146 20.2296L14.669 20.8742ZM10.4555 18.4587C10.3429 19.0588 10.4236 19.6793 10.6854 20.2296L9.331 20.8742C8.93254 20.0369 8.81015 19.0937 8.9813 18.1819L10.4555 18.4587ZM15.0187 18.1819C15.1899 19.0937 15.0675 20.0369 14.669 20.8742L13.3146 20.2296C13.5764 19.6793 13.6571 19.0588 13.5444 18.4587L15.0187 18.1819ZM12.4384 17.1652C12.1515 17.0856 11.8485 17.0856 11.5616 17.1652L11.1605 15.7199C11.7099 15.5674 12.2901 15.5674 12.8395 15.7199L12.4384 17.1652ZM9.00064 18.0789C9.21349 16.9449 10.0496 16.0281 11.1605 15.7199L11.5616 17.1652C11.0065 17.3193 10.583 17.7794 10.4749 18.3556L9.00064 18.0789ZM13.5251 18.3556C13.417 17.7794 12.9935 17.3193 12.4384 17.1652L12.8395 15.7199C13.9504 16.0281 14.7865 16.9449 14.9994 18.0789L13.5251 18.3556Z" fill="white"/>
</svg>
    