<svg width="24" height="24" viewBox="0 0 24 24" fill="none" xmlns="http://www.w3.org/2000/svg">
<path d="M14.8 7L15.0012 7.47905C15.3261 8.25243 15.4077 9.10637 15.2353 9.92729C14.9723 11.1799 13.9751 12.1473 12.7151 12.3723L12.6042 12.3921C12.2046 12.4635 11.7955 12.4635 11.3959 12.3921L11.285 12.3723C10.025 12.1473 9.02782 11.1799 8.76478 9.92729C8.59238 9.10637 8.67403 8.25243 8.99885 7.47905L9.20005 7" stroke="#201F20" stroke-width="1.5" stroke-linecap="round"/>
<path d="M3.77907 15.143C4.34924 17.6504 6.29825 19.6204 8.79754 20.2251C10.898 20.7334 13.1017 20.7334 15.2021 20.2251C17.7014 19.6204 19.6504 17.6504 20.2206 15.143C20.73 12.9026 20.6061 10.5648 19.8627 8.39084L19.7523 8.06787C18.9343 5.67585 16.891 3.91013 14.4057 3.44766L13.7251 3.32102C12.5847 3.10881 11.4149 3.10881 10.2745 3.32102L9.59396 3.44766C7.10861 3.91013 5.06527 5.67586 4.24732 8.06789L4.13688 8.39084C3.39352 10.5648 3.26963 12.9026 3.77907 15.143Z" stroke="#201F20" stroke-width="1.5"/>
</svg>
