<svg width="24" height="24" viewBox="0 0 24 24" fill="none" xmlns="http://www.w3.org/2000/svg">
    <path d="M19 19.1115C19 16.6984 17.3027 14.643 14.996 14.2627L14.7882 14.2284C12.9411 13.9239 11.0589 13.9239 9.21182 14.2284L9.00404 14.2627C6.69733 14.643 5 16.6984 5 19.1115C5 20.1545 5.81848 21 6.82813 21H17.1719C18.1815 21 19 20.1545 19 19.1115Z" stroke="white" stroke-opacity="0.7" stroke-width="1.5"/>
    <path d="M7.91665 6.9375C7.91665 9.11212 9.74482 10.875 12 10.875C14.2551 10.875 16.0833 9.11212 16.0833 6.9375C16.0833 4.76288 14.2551 3 12 3C9.74482 3 7.91665 4.76288 7.91665 6.9375Z" stroke="white" stroke-opacity="0.7" stroke-width="1.5"/>
</svg>
    